<?xml version="1.0" standalone="no"?>
<!DOCTYPE svg PUBLIC "-//W3C//DTD SVG 20010904//EN"
 "http://www.w3.org/TR/2001/REC-SVG-20010904/DTD/svg10.dtd">
<svg version="1.0" xmlns="http://www.w3.org/2000/svg"
 width="512.000000pt" height="512.000000pt" viewBox="0 0 512.000000 512.000000"
 preserveAspectRatio="xMidYMid meet">

<g transform="translate(0.000000,512.000000) scale(0.100000,-0.100000)"
fill="#000000" stroke="none">
<path d="M3245 5108 c-119 -22 -255 -114 -329 -221 -250 -363 29 -859 469
-834 144 8 254 57 353 158 95 97 141 203 149 344 10 159 -41 291 -156 406
-130 130 -302 182 -486 147z"/>
<path d="M2775 4019 c-83 -10 -178 -50 -252 -107 -34 -26 -138 -114 -230 -196
-333 -295 -528 -436 -773 -557 -230 -114 -302 -171 -335 -268 -21 -62 -19
-166 4 -217 19 -42 806 -1034 820 -1034 5 0 13 19 20 43 38 130 157 316 267
416 36 33 53 55 48 63 -4 7 -60 78 -124 158 -64 80 -119 150 -123 156 -4 8 41
38 126 84 130 70 344 207 367 235 9 10 2 100 -26 379 -37 355 -38 366 -21 418
32 102 123 168 232 168 77 0 129 -24 181 -83 50 -57 59 -88 75 -252 16 -175
17 -177 57 -112 113 187 115 418 3 580 -70 102 -173 143 -316 126z"/>
<path d="M2712 3699 c-49 -15 -107 -78 -120 -130 -9 -37 0 -143 51 -634 60
-564 63 -590 82 -588 11 1 61 8 110 17 50 9 125 16 168 16 73 0 77 1 77 23 0
12 -27 281 -60 597 -58 560 -61 576 -87 619 -45 71 -139 105 -221 80z"/>
<path d="M2837 2294 c-391 -71 -694 -366 -772 -753 -24 -115 -16 -334 14 -440
60 -206 185 -389 349 -509 543 -401 1304 -142 1493 509 30 106 38 325 14 440
-79 391 -390 690 -785 755 -105 17 -211 17 -313 -2z m298 -430 c241 -62 417
-314 390 -558 -29 -274 -252 -476 -525 -476 -146 0 -271 52 -374 155 -114 114
-171 281 -149 434 7 42 21 101 33 131 40 104 142 217 245 272 103 55 263 73
380 42z"/>
<path d="M2930 1534 c-42 -18 -86 -59 -106 -96 -22 -43 -18 -136 9 -180 30
-50 81 -86 134 -94 118 -18 223 68 223 182 0 64 -13 100 -48 138 -56 60 -142
80 -212 50z"/>
<path d="M2036 908 c-8 -106 -27 -489 -28 -589 -1 -71 3 -94 24 -140 104 -227
413 -238 532 -18 24 43 30 69 35 146 4 59 2 97 -4 103 -5 4 -35 20 -65 35
-188 94 -348 257 -446 452 l-42 84 -6 -73z"/>
</g>
</svg>
