<?xml version="1.0" standalone="no"?>
<!DOCTYPE svg PUBLIC "-//W3C//DTD SVG 20010904//EN"
 "http://www.w3.org/TR/2001/REC-SVG-20010904/DTD/svg10.dtd">
<svg version="1.0" xmlns="http://www.w3.org/2000/svg"
 width="512.000000pt" height="512.000000pt" viewBox="0 0 512.000000 512.000000"
 preserveAspectRatio="xMidYMid meet">

<g transform="translate(0.000000,512.000000) scale(0.100000,-0.100000)"
fill="#000000" stroke="none">
<path d="M2580 5104 c-179 -38 -356 -178 -439 -344 -179 -365 -5 -782 384
-916 70 -24 95 -28 200 -27 103 0 132 4 202 27 196 64 350 218 417 416 160
478 -268 951 -764 844z"/>
<path d="M2096 3620 c-77 -14 -184 -72 -243 -132 -40 -41 -127 -184 -389 -638
-186 -322 -346 -607 -357 -635 -25 -65 -33 -175 -18 -247 39 -184 197 -330
386 -358 39 -5 276 -10 533 -10 254 0 462 -3 462 -6 0 -4 -115 -322 -256 -708
-160 -436 -257 -715 -257 -738 0 -43 27 -93 66 -122 27 -20 42 -21 309 -24
267 -3 282 -2 323 18 46 22 85 82 85 130 0 44 -38 105 -79 128 -35 20 -53 22
-191 22 -141 0 -152 1 -145 18 4 9 121 330 261 712 152 416 254 709 254 730 0
44 -30 94 -72 120 -31 19 -51 20 -410 20 -225 0 -378 4 -378 9 0 5 122 221
271 480 l272 471 699 0 c774 0 743 -2 791 64 31 43 31 129 0 172 -47 66 -23
64 -737 64 l-646 0 0 38 c-1 120 -84 271 -191 345 -97 67 -231 97 -343 77z"/>
</g>
</svg>
